<?xml version="1.0" encoding="utf-8"?>
<!-- Svg Vector Icons : http://www.onlinewebfonts.com/icon -->
<!DOCTYPE svg PUBLIC "-//W3C//DTD SVG 1.1//EN" "http://www.w3.org/Graphics/SVG/1.1/DTD/svg11.dtd">
<svg version="1.1" xmlns="http://www.w3.org/2000/svg" xmlns:xlink="http://www.w3.org/1999/xlink" x="0px" y="0px" viewBox="0 0 1000 1000" enable-background="new 0 0 1000 1000" xml:space="preserve">
<metadata> Svg Vector Icons : http://www.onlinewebfonts.com/icon </metadata>
<g><g transform="translate(0.000000,511.000000) scale(0.100000,-0.100000)"><path d="M7656.7,4975.2c-742.4-187.1-1232.6-903.1-1135-1653.6c14.2-99.7,16.3-189.2,6.1-197.3c-28.5-26.4-3490.3-1912-3510.7-1912c-10.2,0-52.9,30.5-95.6,67.1c-404.8,343.8-1029.2,437.3-1529.6,225.8c-425.1-177-764.8-571.6-884.8-1025.1c-44.7-164.7-48.8-553.2-8.1-709.8c109.8-431.2,404.8-807.5,779-996.7c596-299,1275.3-193.2,1765.5,274.6l73.2,69.1l1716.7-996.6c1484.8-862.4,1718.7-1004.8,1716.7-1043.4c-2-24.4-14.2-113.9-26.5-197.3c-69.1-431.2,120-945.8,461.7-1265.2c288.8-270.5,636.6-404.7,1043.4-404.7c392.6,0,728.2,134.2,1008.9,396.6c351.9,329.5,516.6,734.3,488.2,1191.9c-52.9,840-750.5,1464.5-1590.6,1417.7c-325.4-18.3-622.4-132.2-876.6-337.6l-122-95.6l-1737,998.7c-1613,925.5-1739.1,1000.7-1733,1047.5c18.3,164.8,6.1,530.9-20.3,624.4l-30.5,105.8l1751.3,953.9l1749.3,956l105.7-95.6c376.3-333.6,903.1-463.8,1381.1-339.7c504.4,132.2,909.2,530.9,1069.9,1049.5c61,197.3,67.1,587.8,12.2,793.3C9349,4387.4,8942.2,4808.4,8433.7,4965C8256.7,5019.9,7852,5026,7656.7,4975.2z M8336,4198.2c370.2-172.9,532.9-632.6,353.9-1000.7c-67.1-136.3-215.6-284.8-358-353.9c-99.7-48.8-134.2-54.9-315.3-54.9c-183.1,0-215.6,6.1-315.3,56.9c-213.6,109.8-360,292.9-419,524.8c-87.5,337.6,120,711.9,473.9,854.3C7904.8,4283.6,8179.4,4271.4,8336,4198.2z M2284.9,785.2c154.6-71.2,288.8-203.4,366.1-362.1c50.8-101.7,57-138.3,57-309.2c0-179-6.1-205.4-67.1-329.5c-79.3-164.7-227.8-301-390.5-366.1c-168.8-67.1-419-63-573.6,8.1s-301,211.5-374.3,355.9c-52.9,107.8-59,136.3-59,321.4c0,189.2,4.1,213.6,67.1,339.7C1489.6,807.5,1914.7,958.1,2284.9,785.2z M8340.1-2629.9c166.8-81.4,319.3-244.1,378.3-402.7c42.7-118,56.9-325.4,28.5-445.4c-26.5-111.9-136.3-294.9-225.8-374.3c-382.4-335.6-953.9-219.7-1179.7,240c-50.8,101.7-56.9,138.3-56.9,309.2c0,179,6.1,205.4,67.1,329.5c97.6,201.3,280.7,347.8,502.4,404.8c34.6,10.2,126.1,14.2,207.5,10.2C8177.4-2562.8,8236.4-2579,8340.1-2629.9z"/></g></g>
</svg>